<svg width="26" height="33" viewBox="0 0 26 33" fill="none" xmlns="http://www.w3.org/2000/svg">
<path opacity="0.5" d="M13 21.4874C13.4604 21.4874 13.8464 21.3281 14.1578 21.0094C14.4693 20.6908 14.625 20.296 14.625 19.8249V17.3312H17.0625C17.5229 17.3312 17.9089 17.1719 18.2203 16.8533C18.5318 16.5346 18.6875 16.1398 18.6875 15.6688C18.6875 15.1977 18.5318 14.8029 18.2203 14.4843C17.9089 14.1656 17.5229 14.0063 17.0625 14.0063H14.625V11.5126C14.625 11.0416 14.4693 10.6467 14.1578 10.3281C13.8464 10.0094 13.4604 9.85013 13 9.85013C12.5396 9.85013 12.1536 10.0094 11.8422 10.3281C11.5307 10.6467 11.375 11.0416 11.375 11.5126V14.0063H8.9375C8.47708 14.0063 8.09115 14.1656 7.77969 14.4843C7.46823 14.8029 7.3125 15.1977 7.3125 15.6688C7.3125 16.1398 7.46823 16.5346 7.77969 16.8533C8.09115 17.1719 8.47708 17.3312 8.9375 17.3312H11.375V19.8249C11.375 20.296 11.5307 20.6908 11.8422 21.0094C12.1536 21.3281 12.5396 21.4874 13 21.4874ZM13 33C12.8917 33 12.7901 32.9931 12.6953 32.9792C12.6005 32.9654 12.5125 32.9446 12.4312 32.9169C8.80208 31.8086 5.82292 29.5296 3.49375 26.08C1.16458 22.6304 0 18.8413 0 14.7128V6.56675C0 6.0403 0.148958 5.56234 0.446875 5.13287C0.744792 4.7034 1.12396 4.39169 1.58437 4.19773L12.1469 0.166247C12.4448 0.0554155 12.7292 0 13 0C13.2708 0 13.5552 0.0554155 13.8531 0.166247L24.4156 4.19773C24.876 4.39169 25.2552 4.7034 25.5531 5.13287C25.851 5.56234 26 6.0403 26 6.56675V14.7128C26 18.8413 24.8354 22.6304 22.5063 26.08C20.1771 29.5296 17.1979 31.8086 13.5688 32.9169C13.5688 32.9169 13.3792 32.9446 13 33Z" fill="#1E5AF9"/>
</svg>
